<?xml version="1.0" encoding="UTF-8" standalone="no"?>
<!DOCTYPE svg PUBLIC "-//W3C//DTD SVG 1.1//EN" "http://www.w3.org/Graphics/SVG/1.1/DTD/svg11.dtd"><svg width="100%"
  height="100%" viewBox="0 0 134 134" version="1.1" xmlns="http://www.w3.org/2000/svg"
  xmlns:xlink="http://www.w3.org/1999/xlink" xml:space="preserve" xmlns:serif="http://www.serif.com/"
  style="fill-rule:evenodd;clip-rule:evenodd;stroke-linejoin:round;stroke-miterlimit:2;">
  <path
    d="M66.667,12.5c-29.867,0 -54.167,24.3 -54.167,54.167c0,29.866 24.3,54.166 54.167,54.166c29.866,0 54.166,-24.3 54.166,-54.166c0,-29.867 -24.3,-54.167 -54.166,-54.167Zm-4.688,8.594c0.179,-0.017 0.342,0.016 0.521,-0l0,47.265l1.172,1.302l32.422,32.292c-7.943,6.641 -18.229,10.547 -29.427,10.547c-25.358,0 -45.834,-20.475 -45.834,-45.833c0,-23.78 18.002,-43.23 41.146,-45.573Zm8.854,-0c22.022,1.985 39.421,19.385 41.407,41.406l-41.407,-0l0,-41.406Zm5.99,49.739l35.417,0c-0.863,9.554 -4.476,18.311 -10.287,25.261l-25.13,-25.261Z"
    style="fill:#fff;fill-rule:nonzero;" /></svg>